<mxfile host="Electron" modified="2023-05-03T06:07:52.739Z" agent="Mozilla/5.0 (Windows NT 10.0; Win64; x64) AppleWebKit/537.36 (KHTML, like Gecko) draw.io/21.2.1 Chrome/112.0.5615.87 Electron/24.1.2 Safari/537.36" etag="zYgbZeoHAKrLoizQVGOQ" version="21.2.1" type="device">
  <diagram name="第 1 页" id="VzOM6tZm2yKVZDnpSubA">
    <mxGraphModel dx="898" dy="579" grid="1" gridSize="10" guides="1" tooltips="1" connect="1" arrows="1" fold="1" page="1" pageScale="1" pageWidth="827" pageHeight="1169" math="0" shadow="0">
      <root>
        <mxCell id="0" />
        <mxCell id="1" parent="0" />
        <mxCell id="Jdswm7WoJq3cbHBuh6Mm-4" value="" style="rounded=0;whiteSpace=wrap;html=1;fillColor=#D9D9D9;strokeColor=none;shadow=1;" parent="1" vertex="1">
          <mxGeometry x="275" y="40.5" width="385" height="529.5" as="geometry" />
        </mxCell>
        <mxCell id="2ntxhKf0hX77mnbHuh0h-2" value="&lt;font style=&quot;font-size: 24px;&quot;&gt;&lt;b&gt;Central VCS Server&lt;/b&gt;&lt;/font&gt;" style="text;html=1;strokeColor=none;fillColor=none;align=center;verticalAlign=middle;whiteSpace=wrap;rounded=0;shadow=1;" parent="1" vertex="1">
          <mxGeometry x="353" y="80" width="230" height="30" as="geometry" />
        </mxCell>
        <mxCell id="2ntxhKf0hX77mnbHuh0h-3" value="" style="rounded=0;whiteSpace=wrap;html=1;shadow=1;" parent="1" vertex="1">
          <mxGeometry x="333" y="140" width="270" height="400" as="geometry" />
        </mxCell>
        <mxCell id="2ntxhKf0hX77mnbHuh0h-4" value="&lt;font size=&quot;1&quot; style=&quot;&quot;&gt;&lt;b style=&quot;font-size: 20px;&quot;&gt;Version Database&lt;/b&gt;&lt;/font&gt;" style="text;html=1;strokeColor=none;fillColor=none;align=center;verticalAlign=middle;whiteSpace=wrap;rounded=0;shadow=1;" parent="1" vertex="1">
          <mxGeometry x="353" y="163.5" width="230" height="30" as="geometry" />
        </mxCell>
        <mxCell id="2ntxhKf0hX77mnbHuh0h-5" value="&lt;font style=&quot;font-size: 18px;&quot;&gt;&lt;b&gt;Version 3&lt;/b&gt;&lt;/font&gt;" style="rounded=1;whiteSpace=wrap;html=1;strokeColor=none;fillColor=#efeee7;arcSize=50;shadow=1;" parent="1" vertex="1">
          <mxGeometry x="395.5" y="210" width="145" height="60" as="geometry" />
        </mxCell>
        <mxCell id="2ntxhKf0hX77mnbHuh0h-6" value="&lt;font style=&quot;font-size: 18px;&quot;&gt;&lt;b&gt;Version 2&lt;/b&gt;&lt;/font&gt;" style="rounded=1;whiteSpace=wrap;html=1;strokeColor=none;fillColor=#efeee7;arcSize=50;shadow=1;" parent="1" vertex="1">
          <mxGeometry x="395.5" y="330" width="145" height="60" as="geometry" />
        </mxCell>
        <mxCell id="2ntxhKf0hX77mnbHuh0h-7" value="&lt;font style=&quot;font-size: 18px;&quot;&gt;&lt;b&gt;Version 1&lt;/b&gt;&lt;/font&gt;" style="rounded=1;whiteSpace=wrap;html=1;strokeColor=none;fillColor=#efeee7;arcSize=50;shadow=1;" parent="1" vertex="1">
          <mxGeometry x="395.5" y="450" width="145" height="60" as="geometry" />
        </mxCell>
        <mxCell id="2ntxhKf0hX77mnbHuh0h-8" value="" style="endArrow=none;html=1;rounded=0;entryX=0.5;entryY=1;entryDx=0;entryDy=0;strokeWidth=2;" parent="1" source="2ntxhKf0hX77mnbHuh0h-6" target="2ntxhKf0hX77mnbHuh0h-5" edge="1">
          <mxGeometry width="50" height="50" relative="1" as="geometry">
            <mxPoint x="293" y="300" as="sourcePoint" />
            <mxPoint x="343" y="250" as="targetPoint" />
          </mxGeometry>
        </mxCell>
        <mxCell id="2ntxhKf0hX77mnbHuh0h-9" value="" style="endArrow=none;html=1;rounded=0;entryX=0.5;entryY=1;entryDx=0;entryDy=0;strokeWidth=2;" parent="1" edge="1">
          <mxGeometry width="50" height="50" relative="1" as="geometry">
            <mxPoint x="467.5" y="450" as="sourcePoint" />
            <mxPoint x="467.5" y="390" as="targetPoint" />
          </mxGeometry>
        </mxCell>
        <mxCell id="Jdswm7WoJq3cbHBuh6Mm-1" value="" style="whiteSpace=wrap;html=1;aspect=fixed;fillColor=#d9d9d9;strokeColor=none;shadow=1;rounded=0;glass=0;" parent="1" vertex="1">
          <mxGeometry y="40.5" width="230" height="230" as="geometry" />
        </mxCell>
        <mxCell id="Jdswm7WoJq3cbHBuh6Mm-2" value="&lt;font color=&quot;#ffffff&quot; style=&quot;font-size: 18px;&quot;&gt;&lt;b&gt;File&lt;/b&gt;&lt;/font&gt;" style="rounded=1;whiteSpace=wrap;html=1;strokeColor=none;fillColor=#0083a0;arcSize=50;shadow=1;" parent="1" vertex="1">
          <mxGeometry x="42.5" y="157" width="145" height="60" as="geometry" />
        </mxCell>
        <mxCell id="Jdswm7WoJq3cbHBuh6Mm-3" value="&lt;font size=&quot;1&quot; style=&quot;&quot;&gt;&lt;b style=&quot;font-size: 20px;&quot;&gt;Computer A&lt;/b&gt;&lt;/font&gt;" style="text;html=1;strokeColor=none;fillColor=none;align=center;verticalAlign=middle;whiteSpace=wrap;rounded=0;shadow=1;" parent="1" vertex="1">
          <mxGeometry y="94" width="230" height="30" as="geometry" />
        </mxCell>
        <mxCell id="Jdswm7WoJq3cbHBuh6Mm-5" value="" style="whiteSpace=wrap;html=1;aspect=fixed;fillColor=#d9d9d9;strokeColor=none;shadow=1;rounded=0;glass=0;" parent="1" vertex="1">
          <mxGeometry y="340" width="230" height="230" as="geometry" />
        </mxCell>
        <mxCell id="Jdswm7WoJq3cbHBuh6Mm-6" value="&lt;font color=&quot;#ffffff&quot; style=&quot;font-size: 18px;&quot;&gt;&lt;b&gt;File&lt;/b&gt;&lt;/font&gt;" style="rounded=1;whiteSpace=wrap;html=1;strokeColor=none;fillColor=#0083a0;arcSize=50;shadow=1;" parent="1" vertex="1">
          <mxGeometry x="42.5" y="456.5" width="145" height="60" as="geometry" />
        </mxCell>
        <mxCell id="Jdswm7WoJq3cbHBuh6Mm-7" value="&lt;font size=&quot;1&quot; style=&quot;&quot;&gt;&lt;b style=&quot;font-size: 20px;&quot;&gt;Computer B&lt;/b&gt;&lt;/font&gt;" style="text;html=1;strokeColor=none;fillColor=none;align=center;verticalAlign=middle;whiteSpace=wrap;rounded=0;shadow=1;" parent="1" vertex="1">
          <mxGeometry y="393.5" width="230" height="30" as="geometry" />
        </mxCell>
        <mxCell id="Jdswm7WoJq3cbHBuh6Mm-8" style="rounded=0;orthogonalLoop=1;jettySize=auto;html=1;exitX=0;exitY=0.25;exitDx=0;exitDy=0;entryX=1;entryY=0.5;entryDx=0;entryDy=0;strokeWidth=2;" parent="1" source="2ntxhKf0hX77mnbHuh0h-3" target="Jdswm7WoJq3cbHBuh6Mm-2" edge="1">
          <mxGeometry relative="1" as="geometry" />
        </mxCell>
        <mxCell id="Jdswm7WoJq3cbHBuh6Mm-9" style="rounded=0;orthogonalLoop=1;jettySize=auto;html=1;exitX=0;exitY=0.75;exitDx=0;exitDy=0;entryX=1;entryY=0.5;entryDx=0;entryDy=0;strokeWidth=2;" parent="1" source="2ntxhKf0hX77mnbHuh0h-3" target="Jdswm7WoJq3cbHBuh6Mm-6" edge="1">
          <mxGeometry relative="1" as="geometry" />
        </mxCell>
      </root>
    </mxGraphModel>
  </diagram>
</mxfile>
